{"title":"Spirit. The Stallion of the Cimarron (WideScreen)-PRAnESH","uid":5353615,"size":2166481311,"categoryP":"video","categoryS":"movies","magnet":"?xt=urn:btih:6ed2f601b845c88c90cc6f1937251939b466c354&amp;dn=Spirit.+The+Stallion+of+the+Cimarron+%28WideScreen%29-PRAnESH&amp;tr=udp%3A%2F%2Ftracker.openbittorrent.com%3A80&amp;tr=udp%3A%2F%2Fopen.demonii.com%3A1337&amp;tr=udp%3A%2F%2Ftracker.coppersurfer.tk%3A6969&amp;tr=udp%3A%2F%2Fexodus.desync.com%3A6969","seeders":0,"leechers":1,"uploader":"utptube","files":-1,"time":1265864153,"description":"This wide screen version of this movie is dedicated to all those who love this movie.\n\nEnjoy!!-PRAnESH\n\n\n\nVideo \nID : 1 \n\nFormat : AVC \n\nFormat profile : &lt;a class=&quot;__cf_email__&quot; href=&quot;/cdn-cgi/l/email-protection&quot; data-cfemail=&quot;0a42636d624a463e243b&quot;&gt;[email&amp;#160;protected]&lt;/a&gt;&lt;script cf-hash='f9e31' type=&quot;text/javascript&quot;&gt;\n/* &lt;![CDATA[ */!function(){try{var t=&quot;currentScript&quot;in document?document.currentScript:function(){for(var t=document.getElementsByTagName(&quot;script&quot;),e=t.length;e--;)if(t[e].getAttribute(&quot;cf-hash&quot;))return t[e]}();if(t&amp;&amp;t.previousSibling){var e,r,n,i,c=t.previousSibling,a=c.getAttribute(&quot;data-cfemail&quot;);if(a){for(e=&quot;&quot;,r=parseInt(a.substr(0,2),16),n=2;a.length-n;n+=2)i=parseInt(a.substr(n,2),16)^r,e+=String.fromCharCode(i);e=document.createTextNode(e),c.parentNode.replaceChild(e,c)}}}catch(u){}}();/* ]]&gt; */&lt;/script&gt; \n\nFormat settings, CABAC : Yes \n\nFormat settings, ReFrames : 3 frames \n\nDuration : 1h 20mn \n\nBit rate mode : Variable \n\nBit rate : 3 031 Kbps \n\nNominal bit rate : 3 173 Kbps \n\nMaximum bit rate : 14.7 Mbps \n\nWidth : 720 pixels \n\nHeight : 436 pixels \n\nDisplay aspect ratio : 2.35:1 \n\nFrame rate mode : Constant \n\nFrame rate : 25.000 fps \n\nResolution : 8 bits \n\nColorimetry : 4:2:0 \n\nScan type : Progressive \n\nBits/(Pixel*Frame) : 0.386 \n\nStream size : 1.69 GiB (84%) \n\n\nAudio #1 \n \nFormat : AC-3 \n\nFormat/Info : Audio Coding 3 \n\nDuration : 1h 20mn \n\nBit rate mode : Constant \n\nBit rate : 384 Kbps \n\nChannel(s) : 6 channels \n\nChannel positions : Front: L C R, Surround: L R, LFE \n\nSampling rate : 48.0 KHz \n\nResolution : 16 bits \n\nStream size : 220 MiB (11%) \n\nTitle : Eng Track \n\nLanguage : English \n \n\nAudio #2 \n \nFormat : AC-3 \n \nFormat profile : Dolby Digital \n \nDuration : 1h 20mn \n\nBit rate mode : Constant \n\nBit rate : 192 Kbps \n\nChannel(s) : 2 channels \n\nChannel positions : L R \n\nSampling rate : 48.0 KHz \n\nResolution : 16 bits \n\nStream size : 110 MiB (5%) \n\nTitle : Directors' Comments on making this film \n\nLanguage : English \n","torrent":{"xt":"urn:btih:6ed2f601b845c88c90cc6f1937251939b466c354","amp;dn":"Spirit.+The+Stallion+of+the+Cimarron+%28WideScreen%29-PRAnESH","amp;tr":["udp%3A%2F%2Ftracker.openbittorrent.com%3A80","udp%3A%2F%2Fopen.demonii.com%3A1337","udp%3A%2F%2Ftracker.coppersurfer.tk%3A6969","udp%3A%2F%2Fexodus.desync.com%3A6969"],"infoHash":"6ed2f601b845c88c90cc6f1937251939b466c354","infoHashBuffer":{"type":"Buffer","data":[110,210,246,1,184,69,200,140,144,204,111,25,55,37,25,57,180,102,195,84]},"announce":[],"urlList":[]}}